<svg xmlns="http://www.w3.org/2000/svg" width="168" height="1511"><g><rect height="27" width="27" y="1" x="5" style="stroke-width:1;stroke:rgb(0,0,0)" fill="#f7fcf0"/><text xml:space="preserve" y="21" x="40" font-size="12" stroke-width="0" stroke="#000000" fill="#000000">(11) 18</text><rect height="27" width="27" y="41" x="5" style="stroke-width:1;stroke:rgb(0,0,0)" fill="#eff9ea"/><text xml:space="preserve" y="61" x="40" font-size="12" stroke-width="0" stroke="#000000" fill="#000000">(12) 19</text><rect height="27" width="27" y="81" x="5" style="stroke-width:1;stroke:rgb(0,0,0)" fill="#e7f6e4"/><text xml:space="preserve" y="101" x="40" font-size="12" stroke-width="0" stroke="#000000" fill="#000000">(4) 20</text><rect height="27" width="27" y="121" x="5" style="stroke-width:1;stroke:rgb(0,0,0)" fill="#dff2df"/><text xml:space="preserve" y="141" x="40" font-size="12" stroke-width="0" stroke="#000000" fill="#000000">(10) 21</text><rect height="27" width="27" y="161" x="5" style="stroke-width:1;stroke:rgb(0,0,0)" fill="#d7efda"/><text xml:space="preserve" y="181" x="40" font-size="12" stroke-width="0" stroke="#000000" fill="#000000">(18) 22</text><rect height="27" width="27" y="201" x="5" style="stroke-width:1;stroke:rgb(0,0,0)" fill="#d0ecd5"/><text xml:space="preserve" y="221" x="40" font-size="12" stroke-width="0" stroke="#000000" fill="#000000">(24) 23</text><rect height="27" width="27" y="241" x="5" style="stroke-width:1;stroke:rgb(0,0,0)" fill="#c8ead1"/><text xml:space="preserve" y="261" x="40" font-size="12" stroke-width="0" stroke="#000000" fill="#000000">(12) 24</text><rect height="27" width="27" y="281" x="5" style="stroke-width:1;stroke:rgb(0,0,0)" fill="#c1e7ce"/><text xml:space="preserve" y="301" x="40" font-size="12" stroke-width="0" stroke="#000000" fill="#000000">(18) 25</text><rect height="27" width="27" y="321" x="5" style="stroke-width:1;stroke:rgb(0,0,0)" fill="#bae4cb"/><text xml:space="preserve" y="341" x="40" font-size="12" stroke-width="0" stroke="#000000" fill="#000000">(29) 26</text><rect height="27" width="27" y="361" x="5" style="stroke-width:1;stroke:rgb(0,0,0)" fill="#b4e1c8"/><text xml:space="preserve" y="381" x="40" font-size="12" stroke-width="0" stroke="#000000" fill="#000000">(15) 27</text><rect height="27" width="27" y="401" x="5" style="stroke-width:1;stroke:rgb(0,0,0)" fill="#addfc6"/><text xml:space="preserve" y="421" x="40" font-size="12" stroke-width="0" stroke="#000000" fill="#000000">(29) 28</text><rect height="27" width="27" y="441" x="5" style="stroke-width:1;stroke:rgb(0,0,0)" fill="#a7dcc4"/><text xml:space="preserve" y="461" x="40" font-size="12" stroke-width="0" stroke="#000000" fill="#000000">(32) 29</text><rect height="27" width="27" y="481" x="5" style="stroke-width:1;stroke:rgb(0,0,0)" fill="#a1dac3"/><text xml:space="preserve" y="501" x="40" font-size="12" stroke-width="0" stroke="#000000" fill="#000000">(31) 30</text><rect height="27" width="27" y="521" x="5" style="stroke-width:1;stroke:rgb(0,0,0)" fill="#9bd7c2"/><text xml:space="preserve" y="541" x="40" font-size="12" stroke-width="0" stroke="#000000" fill="#000000">(29) 31</text><rect height="27" width="27" y="561" x="5" style="stroke-width:1;stroke:rgb(0,0,0)" fill="#95d5c1"/><text xml:space="preserve" y="581" x="40" font-size="12" stroke-width="0" stroke="#000000" fill="#000000">(45) 32</text><rect height="27" width="27" y="601" x="5" style="stroke-width:1;stroke:rgb(0,0,0)" fill="#8fd3c1"/><text xml:space="preserve" y="621" x="40" font-size="12" stroke-width="0" stroke="#000000" fill="#000000">(52) 33</text><rect height="27" width="27" y="641" x="5" style="stroke-width:1;stroke:rgb(0,0,0)" fill="#89d1c1"/><text xml:space="preserve" y="661" x="40" font-size="12" stroke-width="0" stroke="#000000" fill="#000000">(64) 34</text><rect height="27" width="27" y="681" x="5" style="stroke-width:1;stroke:rgb(0,0,0)" fill="#83cfc2"/><text xml:space="preserve" y="701" x="40" font-size="12" stroke-width="0" stroke="#000000" fill="#000000">(36) 35</text><rect height="27" width="27" y="721" x="5" style="stroke-width:1;stroke:rgb(0,0,0)" fill="#7ecdc3"/><text xml:space="preserve" y="741" x="40" font-size="12" stroke-width="0" stroke="#000000" fill="#000000">(50) 36</text><rect height="27" width="27" y="761" x="5" style="stroke-width:1;stroke:rgb(0,0,0)" fill="#79cbc5"/><text xml:space="preserve" y="781" x="40" font-size="12" stroke-width="0" stroke="#000000" fill="#000000">(41) 37</text><rect height="27" width="27" y="801" x="5" style="stroke-width:1;stroke:rgb(0,0,0)" fill="#75c7c6"/><text xml:space="preserve" y="821" x="40" font-size="12" stroke-width="0" stroke="#000000" fill="#000000">(34) 38</text><rect height="27" width="27" y="841" x="5" style="stroke-width:1;stroke:rgb(0,0,0)" fill="#71c3c6"/><text xml:space="preserve" y="861" x="40" font-size="12" stroke-width="0" stroke="#000000" fill="#000000">(45) 39</text><rect height="27" width="27" y="881" x="5" style="stroke-width:1;stroke:rgb(0,0,0)" fill="#6cbfc6"/><text xml:space="preserve" y="901" x="40" font-size="12" stroke-width="0" stroke="#000000" fill="#000000">(41) 40</text><rect height="27" width="27" y="921" x="5" style="stroke-width:1;stroke:rgb(0,0,0)" fill="#67bac6"/><text xml:space="preserve" y="941" x="40" font-size="12" stroke-width="0" stroke="#000000" fill="#000000">(32) 41</text><rect height="27" width="27" y="961" x="5" style="stroke-width:1;stroke:rgb(0,0,0)" fill="#63b4c4"/><text xml:space="preserve" y="981" x="40" font-size="12" stroke-width="0" stroke="#000000" fill="#000000">(39) 42</text><rect height="27" width="27" y="1001" x="5" style="stroke-width:1;stroke:rgb(0,0,0)" fill="#5eaec3"/><text xml:space="preserve" y="1021" x="40" font-size="12" stroke-width="0" stroke="#000000" fill="#000000">(43) 43</text><rect height="27" width="27" y="1041" x="5" style="stroke-width:1;stroke:rgb(0,0,0)" fill="#58a7c0"/><text xml:space="preserve" y="1061" x="40" font-size="12" stroke-width="0" stroke="#000000" fill="#000000">(46) 44</text><rect height="27" width="27" y="1081" x="5" style="stroke-width:1;stroke:rgb(0,0,0)" fill="#53a0bd"/><text xml:space="preserve" y="1101" x="40" font-size="12" stroke-width="0" stroke="#000000" fill="#000000">(44) 45</text><rect height="27" width="27" y="1121" x="5" style="stroke-width:1;stroke:rgb(0,0,0)" fill="#4e99ba"/><text xml:space="preserve" y="1141" x="40" font-size="12" stroke-width="0" stroke="#000000" fill="#000000">(49) 46</text><rect height="27" width="27" y="1161" x="5" style="stroke-width:1;stroke:rgb(0,0,0)" fill="#4890b6"/><text xml:space="preserve" y="1181" x="40" font-size="12" stroke-width="0" stroke="#000000" fill="#000000">(47) 47</text><rect height="27" width="27" y="1201" x="5" style="stroke-width:1;stroke:rgb(0,0,0)" fill="#4288b1"/><text xml:space="preserve" y="1221" x="40" font-size="12" stroke-width="0" stroke="#000000" fill="#000000">(63) 48</text><rect height="27" width="27" y="1241" x="5" style="stroke-width:1;stroke:rgb(0,0,0)" fill="#3c7fac"/><text xml:space="preserve" y="1261" x="40" font-size="12" stroke-width="0" stroke="#000000" fill="#000000">(47) 49</text><rect height="27" width="27" y="1281" x="5" style="stroke-width:1;stroke:rgb(0,0,0)" fill="#3575a6"/><text xml:space="preserve" y="1301" x="40" font-size="12" stroke-width="0" stroke="#000000" fill="#000000">(35) 50</text><rect height="27" width="27" y="1321" x="5" style="stroke-width:1;stroke:rgb(0,0,0)" fill="#2e6b9f"/><text xml:space="preserve" y="1341" x="40" font-size="12" stroke-width="0" stroke="#000000" fill="#000000">(40) 51</text><rect height="27" width="27" y="1361" x="5" style="stroke-width:1;stroke:rgb(0,0,0)" fill="#276199"/><text xml:space="preserve" y="1381" x="40" font-size="12" stroke-width="0" stroke="#000000" fill="#000000">(54) 52</text><rect height="27" width="27" y="1401" x="5" style="stroke-width:1;stroke:rgb(0,0,0)" fill="#1f5691"/><text xml:space="preserve" y="1421" x="40" font-size="12" stroke-width="0" stroke="#000000" fill="#000000">(48) 53</text><rect height="27" width="27" y="1441" x="5" style="stroke-width:1;stroke:rgb(0,0,0)" fill="#154b89"/><text xml:space="preserve" y="1461" x="40" font-size="12" stroke-width="0" stroke="#000000" fill="#000000">(53) 54</text><rect height="27" width="27" y="1481" x="5" style="stroke-width:1;stroke:rgb(0,0,0)" fill="#084081"/><text xml:space="preserve" y="1501" x="40" font-size="12" stroke-width="0" stroke="#000000" fill="#000000">(53) 55</text></g></svg>